<?xml version="1.0" standalone="no"?>
<!DOCTYPE svg PUBLIC "-//W3C//DTD SVG 20010904//EN"
 "http://www.w3.org/TR/2001/REC-SVG-20010904/DTD/svg10.dtd">
<svg version="1.0" xmlns="http://www.w3.org/2000/svg"
 width="512.000000pt" height="512.000000pt" viewBox="0 0 512.000000 512.000000"
 preserveAspectRatio="xMidYMid meet">

<g transform="translate(0.000000,512.000000) scale(0.100000,-0.100000)"
fill="#000000" stroke="none">
<path d="M2390 4180 c-381 -52 -734 -233 -992 -509 -79 -85 -221 -286 -247
-349 -13 -31 -12 -33 15 -55 137 -108 500 -387 505 -387 3 0 16 26 29 58 90
222 284 423 508 524 122 55 241 80 387 81 189 1 318 -34 485 -133 89 -52 130
-61 187 -39 15 6 90 72 167 147 177 175 198 217 156 309 -15 34 -36 54 -107
101 -170 111 -369 192 -570 233 -121 24 -408 34 -523 19z"/>
<path d="M2680 2832 c-19 -11 -45 -34 -57 -52 -22 -32 -23 -42 -23 -240 0
-198 1 -208 23 -240 47 -70 48 -70 475 -70 l382 0 -6 -27 c-16 -69 -73 -203
-109 -258 -41 -62 -126 -153 -183 -195 l-32 -25 252 -195 c139 -107 257 -196
263 -198 19 -5 158 150 219 241 112 171 194 369 235 573 30 145 44 366 32 498
-10 116 -20 139 -75 180 -27 21 -38 21 -694 24 -635 2 -669 1 -702 -16z"/>
</g>
</svg>
